<mxfile host="Electron" modified="2024-05-03T23:50:04.910Z" agent="Mozilla/5.0 (Windows NT 10.0; Win64; x64) AppleWebKit/537.36 (KHTML, like Gecko) draw.io/24.2.5 Chrome/120.0.6099.109 Electron/28.1.0 Safari/537.36" etag="1GDcA_zGPZsh4aabEabl" version="24.2.5" type="device">
  <diagram name="Страница — 1" id="jIc_-0nV2Izlxw64OF78">
    <mxGraphModel dx="1674" dy="844" grid="1" gridSize="10" guides="1" tooltips="1" connect="1" arrows="1" fold="1" page="1" pageScale="1" pageWidth="827" pageHeight="1169" math="0" shadow="0">
      <root>
        <mxCell id="0" />
        <mxCell id="1" parent="0" />
        <mxCell id="qk38wRSYMXh0JKTcBKiv-6" style="edgeStyle=orthogonalEdgeStyle;rounded=0;orthogonalLoop=1;jettySize=auto;html=1;exitX=0.5;exitY=1;exitDx=0;exitDy=0;entryX=0.5;entryY=0;entryDx=0;entryDy=0;" edge="1" parent="1" source="qk38wRSYMXh0JKTcBKiv-1" target="qk38wRSYMXh0JKTcBKiv-2">
          <mxGeometry relative="1" as="geometry" />
        </mxCell>
        <mxCell id="qk38wRSYMXh0JKTcBKiv-1" value="начало&lt;div&gt;delete&lt;br&gt;&lt;/div&gt;" style="rounded=1;whiteSpace=wrap;html=1;arcSize=50;" vertex="1" parent="1">
          <mxGeometry x="20" y="20" width="100" height="50" as="geometry" />
        </mxCell>
        <mxCell id="qk38wRSYMXh0JKTcBKiv-8" style="edgeStyle=orthogonalEdgeStyle;rounded=0;orthogonalLoop=1;jettySize=auto;html=1;exitX=0.5;exitY=1;exitDx=0;exitDy=0;entryX=0.5;entryY=0;entryDx=0;entryDy=0;" edge="1" parent="1" source="qk38wRSYMXh0JKTcBKiv-2" target="qk38wRSYMXh0JKTcBKiv-7">
          <mxGeometry relative="1" as="geometry" />
        </mxCell>
        <mxCell id="qk38wRSYMXh0JKTcBKiv-2" value="posarr ≥&amp;nbsp;0 и&lt;div&gt;posarr &amp;lt; n&lt;/div&gt;" style="rhombus;whiteSpace=wrap;html=1;" vertex="1" parent="1">
          <mxGeometry x="20" y="90" width="100" height="60" as="geometry" />
        </mxCell>
        <mxCell id="qk38wRSYMXh0JKTcBKiv-3" value="да" style="text;html=1;strokeColor=none;fillColor=none;align=center;verticalAlign=middle;whiteSpace=wrap;rounded=0;" vertex="1" parent="1">
          <mxGeometry x="93" y="90" width="60" height="30" as="geometry" />
        </mxCell>
        <mxCell id="qk38wRSYMXh0JKTcBKiv-4" value="нет" style="text;html=1;strokeColor=none;fillColor=none;align=center;verticalAlign=middle;whiteSpace=wrap;rounded=0;" vertex="1" parent="1">
          <mxGeometry x="60" y="140" width="60" height="30" as="geometry" />
        </mxCell>
        <mxCell id="qk38wRSYMXh0JKTcBKiv-29" style="edgeStyle=orthogonalEdgeStyle;rounded=0;orthogonalLoop=1;jettySize=auto;html=1;exitX=0.5;exitY=1;exitDx=0;exitDy=0;entryX=0.5;entryY=0;entryDx=0;entryDy=0;" edge="1" parent="1" source="qk38wRSYMXh0JKTcBKiv-7" target="qk38wRSYMXh0JKTcBKiv-24">
          <mxGeometry relative="1" as="geometry" />
        </mxCell>
        <mxCell id="qk38wRSYMXh0JKTcBKiv-7" value="Вывод:&lt;br&gt;&lt;div&gt;Неверная позиция для удаления&lt;br&gt;&lt;/div&gt;" style="shape=parallelogram;perimeter=parallelogramPerimeter;whiteSpace=wrap;html=1;fixedSize=1;" vertex="1" parent="1">
          <mxGeometry x="20" y="170" width="100" height="50" as="geometry" />
        </mxCell>
        <mxCell id="qk38wRSYMXh0JKTcBKiv-10" style="edgeStyle=orthogonalEdgeStyle;rounded=0;orthogonalLoop=1;jettySize=auto;html=1;exitX=1;exitY=0.5;exitDx=0;exitDy=0;entryX=0.5;entryY=0;entryDx=0;entryDy=0;entryPerimeter=0;" edge="1" parent="1" source="qk38wRSYMXh0JKTcBKiv-2">
          <mxGeometry relative="1" as="geometry">
            <mxPoint x="190" y="170" as="targetPoint" />
          </mxGeometry>
        </mxCell>
        <mxCell id="qk38wRSYMXh0JKTcBKiv-11" value="i = posarr" style="rounded=0;whiteSpace=wrap;html=1;" vertex="1" parent="1">
          <mxGeometry x="140" y="170" width="100" height="50" as="geometry" />
        </mxCell>
        <mxCell id="qk38wRSYMXh0JKTcBKiv-15" style="edgeStyle=orthogonalEdgeStyle;rounded=0;orthogonalLoop=1;jettySize=auto;html=1;exitX=0.5;exitY=1;exitDx=0;exitDy=0;exitPerimeter=0;entryX=0.5;entryY=0;entryDx=0;entryDy=0;" edge="1" parent="1" source="qk38wRSYMXh0JKTcBKiv-12" target="qk38wRSYMXh0JKTcBKiv-14">
          <mxGeometry relative="1" as="geometry" />
        </mxCell>
        <mxCell id="qk38wRSYMXh0JKTcBKiv-12" value="цикл 1&lt;div&gt;i =&amp;nbsp;n-2&lt;/div&gt;" style="strokeWidth=2;html=1;shape=mxgraph.flowchart.loop_limit;whiteSpace=wrap;" vertex="1" parent="1">
          <mxGeometry x="140" y="240" width="100" height="50" as="geometry" />
        </mxCell>
        <mxCell id="qk38wRSYMXh0JKTcBKiv-13" style="edgeStyle=orthogonalEdgeStyle;rounded=0;orthogonalLoop=1;jettySize=auto;html=1;exitX=0.5;exitY=1;exitDx=0;exitDy=0;entryX=0.5;entryY=0;entryDx=0;entryDy=0;entryPerimeter=0;" edge="1" parent="1" source="qk38wRSYMXh0JKTcBKiv-11" target="qk38wRSYMXh0JKTcBKiv-12">
          <mxGeometry relative="1" as="geometry" />
        </mxCell>
        <mxCell id="qk38wRSYMXh0JKTcBKiv-14" value="A[i]=A[i+1]&lt;div&gt;i = i + 1&lt;/div&gt;" style="rounded=0;whiteSpace=wrap;html=1;" vertex="1" parent="1">
          <mxGeometry x="140" y="310" width="100" height="50" as="geometry" />
        </mxCell>
        <mxCell id="qk38wRSYMXh0JKTcBKiv-20" style="edgeStyle=orthogonalEdgeStyle;rounded=0;orthogonalLoop=1;jettySize=auto;html=1;exitX=0.5;exitY=0;exitDx=0;exitDy=0;exitPerimeter=0;entryX=0.5;entryY=0;entryDx=0;entryDy=0;" edge="1" parent="1" source="qk38wRSYMXh0JKTcBKiv-16" target="qk38wRSYMXh0JKTcBKiv-19">
          <mxGeometry relative="1" as="geometry" />
        </mxCell>
        <mxCell id="qk38wRSYMXh0JKTcBKiv-16" value="" style="strokeWidth=2;html=1;shape=mxgraph.flowchart.loop_limit;whiteSpace=wrap;rotation=-180;" vertex="1" parent="1">
          <mxGeometry x="140" y="380" width="100" height="50" as="geometry" />
        </mxCell>
        <mxCell id="qk38wRSYMXh0JKTcBKiv-17" value="цикл 1" style="text;html=1;strokeColor=none;fillColor=none;align=center;verticalAlign=middle;whiteSpace=wrap;rounded=0;" vertex="1" parent="1">
          <mxGeometry x="160" y="390" width="60" height="30" as="geometry" />
        </mxCell>
        <mxCell id="qk38wRSYMXh0JKTcBKiv-18" style="edgeStyle=orthogonalEdgeStyle;rounded=0;orthogonalLoop=1;jettySize=auto;html=1;exitX=0.5;exitY=1;exitDx=0;exitDy=0;entryX=0.5;entryY=1;entryDx=0;entryDy=0;entryPerimeter=0;" edge="1" parent="1" source="qk38wRSYMXh0JKTcBKiv-14" target="qk38wRSYMXh0JKTcBKiv-16">
          <mxGeometry relative="1" as="geometry" />
        </mxCell>
        <mxCell id="qk38wRSYMXh0JKTcBKiv-30" style="edgeStyle=orthogonalEdgeStyle;rounded=0;orthogonalLoop=1;jettySize=auto;html=1;exitX=0.5;exitY=1;exitDx=0;exitDy=0;" edge="1" parent="1" source="qk38wRSYMXh0JKTcBKiv-19">
          <mxGeometry relative="1" as="geometry">
            <mxPoint x="70" y="520" as="targetPoint" />
            <Array as="points">
              <mxPoint x="190" y="520" />
            </Array>
          </mxGeometry>
        </mxCell>
        <mxCell id="qk38wRSYMXh0JKTcBKiv-19" value="A[n-1]=MaxInt" style="rounded=0;whiteSpace=wrap;html=1;" vertex="1" parent="1">
          <mxGeometry x="140" y="450" width="100" height="50" as="geometry" />
        </mxCell>
        <mxCell id="qk38wRSYMXh0JKTcBKiv-21" value="" style="strokeWidth=2;html=1;shape=mxgraph.flowchart.annotation_1;align=left;pointerEvents=1;" vertex="1" parent="1">
          <mxGeometry x="260" y="450" width="20" height="50" as="geometry" />
        </mxCell>
        <mxCell id="qk38wRSYMXh0JKTcBKiv-22" value="" style="endArrow=none;dashed=1;html=1;rounded=0;exitX=1;exitY=0.5;exitDx=0;exitDy=0;entryX=0;entryY=0.5;entryDx=0;entryDy=0;entryPerimeter=0;" edge="1" parent="1" target="qk38wRSYMXh0JKTcBKiv-21">
          <mxGeometry width="50" height="50" relative="1" as="geometry">
            <mxPoint x="240" y="475" as="sourcePoint" />
            <mxPoint x="450" y="530" as="targetPoint" />
          </mxGeometry>
        </mxCell>
        <mxCell id="qk38wRSYMXh0JKTcBKiv-23" value="maxint - максимальное значение integer" style="text;html=1;align=center;verticalAlign=middle;whiteSpace=wrap;rounded=0;" vertex="1" parent="1">
          <mxGeometry x="264" y="460" width="136" height="30" as="geometry" />
        </mxCell>
        <mxCell id="qk38wRSYMXh0JKTcBKiv-24" value="конец" style="rounded=1;whiteSpace=wrap;html=1;arcSize=50;" vertex="1" parent="1">
          <mxGeometry x="20" y="535" width="100" height="50" as="geometry" />
        </mxCell>
      </root>
    </mxGraphModel>
  </diagram>
</mxfile>
